# xmcd CD database file
#
# Track frame offsets:
#	150
#	18900
#	36314
#	54936
#	78814
#	97384
#	122993
#	136447
#	146508
#	173101
#	186098
#	200669
#
# Disc length: 2865 seconds
#
# Revision: 0
# Processed by: cddbd v1.5.2PL0 Copyright (c) Steve Scherf et al.
# Submitted via: CDex 1.79
#
DISCID=a90b2f0c
DTITLE=Various artists - Jazzism 5 - Selected by Bol.com
DYEAR=2007
DGENRE=Jazz
TTITLE0=Monsieur Dubois with Joseph Bowie - The soul integration
TTITLE1=Marc Broussard - Come in from the cold
TTITLE2=Donnie - If I were you
TTITLE3=Roberta Cambarini and Hank Jones - Deep purple
TTITLE4=Ledisi - You and me
TTITLE5=Nils Landgren Funk Unit - Stuff like that
TTITLE6=Marcos Valle - Ela e Carioca
TTITLE7=Mighty Mo Rodgers - John Brown blues
TTITLE8=Teddy Thompson - Down low
TTITLE9=Kaki King - Yellowcake
TTITLE10=Linda Ronstadt - Moss Otis regrets
TTITLE11=Ellis Hooks - You don't know me
EXTD=YEAR: 2007
EXTT0=
EXTT1=
EXTT2=
EXTT3=
EXTT4=
EXTT5=
EXTT6=
EXTT7=
EXTT8=
EXTT9=
EXTT10=
EXTT11=
PLAYORDER=
